Coordinates
version=1
nRows=11
nColumns=46
inDegrees=yes

Units are S.I. units (second, meters, Newtons, ...)
Angles are in degrees.

endheader
time	pelvis_tilt	pelvis_list	pelvis_rotation	pelvis_tx	pelvis_ty	pelvis_tz	bb_angle	bb_tx	bb_ty	bb_tz	hip_flexion_r	hip_adduction_r	hip_rotation_r	knee_angle_r	knee_angle_r_beta	ankle_angle_r	subtalar_angle_r	mtp_angle_r	crank_angle_r	hip_flexion_l	hip_adduction_l	hip_rotation_l	knee_angle_l	knee_angle_l_beta	ankle_angle_l	subtalar_angle_l	mtp_angle_l	crank_angle_l	lumbar_extension	lumbar_bending	lumbar_rotation	arm_flex_r	arm_add_r	arm_rot_r	elbow_flex_r	pro_sup_r	wrist_flex_r	wrist_dev_r	arm_flex_l	arm_add_l	arm_rot_l	elbow_flex_l	pro_sup_l	wrist_flex_l	wrist_dev_l
      5.00000000	    -21.85615389	      8.32625127	     -7.29676648	      0.40968107	      1.17363168	     -0.24456373	      0.00000000	      0.50000000	      0.00000000	      0.25000000	     43.80358843	     -6.53645575	     12.57741682	     39.19635219	      0.68410540	     -0.90980144	     -8.83766630	      0.00000000	      0.00000000	     46.42298243	      7.49527707	      2.18452719	     81.20459018	      1.41728747	    -16.70516405	    -13.77728611	      0.00000000	      0.00000000	    -58.44499816	    -10.16477277	      0.17543150	     57.19859555	    -47.17164453	     52.32092106	     86.43895428	     59.51033186	      0.00000000	      0.00000000	     48.28029493	    -16.84553797	     25.14761702	     73.65595535	     52.35469457	      0.00000000	      0.00000000
      5.00500000	    -22.07122077	      8.75380288	     -6.28745059	      0.40927743	      1.17147309	     -0.24386483	      0.00000000	      0.50000000	      0.00000000	      0.25000000	     42.47254428	     -7.35068595	     12.85915240	     36.92535233	      0.64446898	     -2.54124492	     -9.74324161	      0.00000000	      0.00000000	     48.15815150	      8.38231210	      2.49755514	     83.72306464	      1.46124314	    -15.29284875	    -13.58662280	      0.00000000	      0.00000000	    -57.90024033	    -10.29182016	     -1.53744476	     55.31574771	    -44.23192494	     49.48699350	     84.42104171	     58.82960840	      0.00000000	      0.00000000	     47.86208812	    -18.40444401	     25.55746434	     74.86486198	     52.59692514	      0.00000000	      0.00000000
      5.01000000	    -22.21677138	      9.34071282	     -5.16079598	      0.40890341	      1.16951821	     -0.24377249	      0.00000000	      0.50000000	      0.00000000	      0.25000000	     41.12228487	     -8.54482698	     12.87778793	     34.76745544	      0.60680657	     -3.81372112	     -9.68691480	      0.00000000	      0.00000000	     49.76365347	      9.69283875	      2.78646526	     85.98040386	      1.50064114	    -14.16129157	    -14.09309910	      0.00000000	      0.00000000	    -57.57907862	    -10.42124109	     -2.69642107	     54.64918835	    -44.06956293	     49.45035519	     84.21754933	     58.78857578	      0.00000000	      0.00000000	     47.95655133	    -18.41833748	     25.70800856	     74.94138077	     52.61542514	      0.00000000	      0.00000000
      5.01500000	    -22.57483282	      9.51278938	     -3.79904416	      0.40837223	      1.16752436	     -0.24344859	      0.00000000	      0.50000000	      0.00000000	      0.25000000	     39.70702303	     -9.36695298	     12.63756804	     32.42831726	      0.56598091	     -5.83251584	    -11.04428623	      0.00000000	      0.00000000	     51.58231001	     10.71100357	      3.45859752	     88.28591935	      1.54087998	    -12.90790557	    -13.96527714	      0.00000000	      0.00000000	    -56.94420795	    -10.14583263	     -4.30586435	     53.16617255	    -41.57226799	     47.28024947	     82.55388303	     58.27811967	      0.00000000	      0.00000000	     47.68841835	    -19.69758748	     26.19446519	     75.62728034	     52.77235608	      0.00000000	      0.00000000
      5.02000000	    -22.88112885	     10.05333361	     -2.69909893	      0.40790876	      1.16563967	     -0.24282751	      0.00000000	      0.50000000	      0.00000000	      0.25000000	     38.48643737	    -10.46842813	     12.50588673	     30.41851550	      0.53090325	     -6.96552347	    -10.71054919	      0.00000000	      0.00000000	     53.31048696	     11.85855850	      3.57788933	     90.31901734	      1.57636423	    -11.75614928	    -14.48184882	      0.00000000	      0.00000000	    -56.56335709	    -10.40318592	     -5.45974433	     52.57586653	    -41.49139663	     47.32537185	     82.37912716	     58.26665949	      0.00000000	      0.00000000	     47.91716864	    -19.71489447	     26.35077285	     75.72682159	     52.80107232	      0.00000000	      0.00000000
      5.02500000	    -23.37629559	     10.07756223	     -1.22798229	      0.40754289	      1.16386296	     -0.24255942	      0.00000000	      0.50000000	      0.00000000	      0.25000000	     37.03774643	    -11.25409920	     11.86972193	     27.99993991	      0.48869114	     -9.12734785	    -11.80689698	      0.00000000	      0.00000000	     55.20759902	     12.83999765	      4.32601793	     92.36895385	      1.61214237	    -10.50000369	    -14.02379597	      0.00000000	      0.00000000	    -55.85044351	    -10.03235790	     -6.98994891	     51.25890905	    -39.04719533	     45.46601632	     80.74420746	     57.79417634	      0.00000000	      0.00000000	     47.78135023	    -21.25589288	     27.35554061	     76.23134795	     52.98192376	      0.00000000	      0.00000000
      5.03000000	    -23.90958296	     10.44493897	      0.07153919	      0.40742443	      1.16197302	     -0.24212045	      0.00000000	      0.50000000	      0.00000000	      0.25000000	     35.86591281	    -12.33174235	     11.22642518	     25.97012292	      0.45326415	    -10.46510152	    -11.67279492	      0.00000000	      0.00000000	     57.14228776	     13.83579692	      4.42922955	     94.19323347	      1.64398206	     -9.40831537	    -14.12312022	      0.00000000	      0.00000000	    -55.22859404	    -10.08086893	     -8.67227471	     50.11717250	    -37.04657767	     44.01722477	     79.39842437	     57.46277155	      0.00000000	      0.00000000	     47.60690901	    -22.48782481	     27.93475116	     76.90754804	     53.14350295	      0.00000000	      0.00000000
      5.03500000	    -24.45872105	     10.63033449	      1.42452249	      0.40721204	      1.16024838	     -0.24144954	      0.00000000	      0.50000000	      0.00000000	      0.25000000	     34.61170848	    -13.23961498	     10.48706515	     23.96779340	      0.41831691	    -11.88252733	    -11.52029910	      0.00000000	      0.00000000	     59.07346887	     14.64826736	      4.64182048	     95.94461880	      1.67454950	     -8.22077804	    -14.37079812	      0.00000000	      0.00000000	    -54.63885933	     -9.99889430	    -10.16561764	     49.25013766	    -35.57231416	     43.08789633	     78.49562142	     57.24976697	      0.00000000	      0.00000000	     47.60644696	    -23.51502278	     28.48886343	     77.26916207	     53.25327394	      0.00000000	      0.00000000
      5.04000000	    -24.96617164	     10.91631397	      2.67901662	      0.40720553	      1.15863618	     -0.24096927	      0.00000000	      0.50000000	      0.00000000	      0.25000000	     33.42443695	    -14.26723419	      9.26097763	     22.08400392	      0.38543858	    -13.09821432	    -10.97797112	      0.00000000	      0.00000000	     60.93841761	     15.45783448	      4.57347738	     97.46346432	      1.70105835	     -7.27326456	    -14.26715265	      0.00000000	      0.00000000	    -54.10687467	    -10.03607136	    -11.87111891	     48.48624852	    -33.61304104	     42.04945723	     77.12654589	     56.98324189	      0.00000000	      0.00000000	     47.40668848	    -24.93805256	     29.07102674	     78.05253591	     53.42616335	      0.00000000	      0.00000000
      5.04500000	    -25.59764224	     11.07833119	      3.80909843	      0.40683480	      1.15680271	     -0.24025075	      0.00000000	      0.50000000	      0.00000000	      0.25000000	     32.44109913	    -15.05773966	      8.16026678	     20.37994656	      0.35569717	    -14.23633881	    -10.20161548	      0.00000000	      0.00000000	     63.11001934	     15.78347335	      4.36395809	     99.02908792	      1.72838364	     -6.40495438	    -13.93495499	      0.00000000	      0.00000000	    -53.50610079	    -10.19493690	    -12.89198455	     47.87352687	    -33.33682374	     42.08667388	     76.91141983	     56.95337101	      0.00000000	      0.00000000	     47.62798421	    -25.16625438	     29.22965980	     78.16701630	     53.44598308	      0.00000000	      0.00000000
      5.05000000	    -26.13169468	     10.72312853	      5.05433662	      0.40653258	      1.15513050	     -0.23935023	      0.00000000	      0.50000000	      0.00000000	      0.25000000	     31.26171277	    -15.37512407	      6.35353906	     18.70397199	      0.32644589	    -15.64989810	     -9.70596897	      0.00000000	      0.00000000	     65.12336852	     15.81504901	      4.74198744	    100.59219426	      1.75566499	     -5.15600688	    -12.69289168	      0.00000000	      0.00000000	    -52.84500778	     -9.75917216	    -14.90709981	     47.94271490	    -29.86000482	     41.14210245	     74.24147691	     56.61120579	      0.00000000	      0.00000000	     46.70589445	    -28.07419504	     29.90522573	     80.03588212	     53.76074888	      0.00000000	      0.00000000
